<?xml version="1.0" encoding="utf-8"?>
<!-- Generator: Adobe Illustrator 21.1.0, SVG Export Plug-In . SVG Version: 6.00 Build 0)  -->
<svg version="1.1" id="Camada_1" xmlns="http://www.w3.org/2000/svg" xmlns:xlink="http://www.w3.org/1999/xlink" x="0px" y="0px"
	 viewBox="0 0 1000 1000" style="enable-background:new 0 0 1000 1000;" xml:space="preserve">
<title>users2</title>
<title>contract</title>
<title>users2</title>
<title>contract</title>
<g>
	<path d="M102.8,26.3c21.8,0.3,36.7,8.1,49.6,21c73.2,73.2,146.6,146.2,220,219.3c42.4,42.2,84.9,84.3,127,126.9
		c6.3,6.4,9.7,6.7,16.3,0.1C631,277.8,746.6,162.4,862.1,46.8c18.6-18.6,40.3-26.4,66-18.6C973,41.7,987.6,96.3,956,131.2
		c-2.5,2.7-5.2,5.3-7.8,7.9C833.9,253.5,719.6,367.9,605,482c-7,7-6.7,10.4,0.1,17.2c116.1,115.4,231.9,231.1,347.8,346.7
		c22.1,22,27.2,51.1,13.7,76.4c-20,37.4-69.7,45.1-100.1,15C816.1,887.3,766.2,837,716,786.8c-66.6-66.5-133.2-133-199.5-199.8
		c-6.3-6.3-9.3-6.4-15.7,0C385.1,703.2,269,819.2,153,935.1c-25.4,25.4-61.4,27.7-87.2,5.9c-28.6-24.1-30-66.3-2.8-93.6
		c78.7-79.1,157.5-158.1,236.3-237.2c37.2-37.4,74.3-75,111.9-112c6.7-6.6,5.5-9.7-0.4-15.6C294.7,367.1,178.8,251.5,63,135.8
		c-33.2-33.1-24.6-85.6,16.8-104C88.1,28.1,96.8,25.9,102.8,26.3z"/>
</g>
</svg>
