<?xml version="1.0" encoding="utf-8"?>
<!-- Generator: Adobe Illustrator 21.1.0, SVG Export Plug-In . SVG Version: 6.00 Build 0)  -->
<svg version="1.1" id="Camada_1" xmlns="http://www.w3.org/2000/svg" xmlns:xlink="http://www.w3.org/1999/xlink" x="0px" y="0px"
	 viewBox="0 0 1000 1000" style="enable-background:new 0 0 1000 1000;" xml:space="preserve">
<title>users2</title>
<title>contract</title>
<title>users2</title>
<title>contract</title>
<g>
	<path d="M505.5,970.9c-77.1,0-154.3,0-231.4,0c-72.9,0-119-43.3-120.7-117.4c-1.9-83.5-0.8-167.1-0.9-250.7
		c-0.1-101.6-0.4-203.1,0.3-304.7c0.1-16.3-3.4-24.6-21-21.7c-1.9,0.3-3.8,0-5.8,0c-47.7-0.1-62.9-20.5-50.1-68.1
		c4-15.1,15.7-18.8,29.8-18.7c50.8,0.1,101.6-1,152.3,0.6c19.5,0.6,28.5-5.8,34.7-23.7c8.7-25.4,19.8-50.1,31.2-74.5
		c16.3-35,44.3-55.4,83-56.1c65.5-1.3,131.1-1.3,196.7,0c38.8,0.8,66.6,21.5,82.8,56.5c12.6,27.4,24.4,55.1,35.1,83.3
		c4.2,11.2,10.2,14.3,21.3,14.2c52.1-0.4,104.1-0.3,156.2-0.1c30,0.1,35.8,6.2,35.8,36.4c0,2.6,0,5.1,0,7.7
		c0,38.3-4.4,42.6-43.5,42.7c-33.7,0-33.7,0-33.7,33.6c0,174.8-0.1,349.7,0,524.5c0,43.5-11.4,82.4-43.9,113.1
		c-19.4,18.3-43.2,23.4-69.2,23.3C664.9,970.6,585.2,970.9,505.5,970.9z M240.7,567.9c0,88,0,176,0,264.1c0,9,1,17.8,2.8,26.7
		c3.5,17,11.8,23.8,30.4,23.7c152.3-0.8,304.5-0.4,456.8-0.4c29.3,0,33.6-3.6,38-32.8c0.9-5.7,0.8-11.5,0.8-17.3
		c0-177.3-0.2-354.6,0.4-532c0.1-16.4-3.5-21.8-21-21.7c-162.5,0.7-325.1,0.8-487.6,0c-17.9-0.1-21,5.7-20.9,21.9
		C241.1,389.3,240.7,478.6,240.7,567.9z M503.4,189.7c25,0,50.1,0.3,75.1-0.1c16.6-0.3,40.7,7.3,47.8-3.1c8.6-12.5-9.7-30.5-14-46.9
		c-3.9-15-13.4-17.9-27.2-17.7c-42.4,0.6-84.8-0.3-127.1,0.3c-66,0.9-45.1-10-73.5,49.8c-7.3,15.3-1.8,18.2,13,17.9
		C432.8,189.2,468.1,189.7,503.4,189.7z"/>
	<path d="M395,578.3c0,55.2,0.1,110.4,0,165.6c-0.1,27.7-8,35.7-35,36.2c-50,0.9-53.3-2.4-53.3-52.6c0-102.7,0-205.4,0-308.1
		c0-32.2,7-38.9,39.9-39c5.8,0,11.6-0.2,17.3,0.1c22.6,1,31,9.4,31.1,32.2C395.1,467.9,395,523.1,395,578.3z"/>
	<path d="M460.9,578.3c0-53.9-0.1-107.8,0-161.8c0-27.7,7.9-35.7,35-36.2c50.2-0.8,53.3,2.2,53.4,52.5c0,102.7,0,205.4,0,308.1
		c0,32.2-7,39-39.8,39.1c-5.8,0-11.6,0.2-17.3,0c-22.6-1-31-9.4-31.1-32.3C460.8,691.3,460.9,634.8,460.9,578.3z"/>
	<path d="M703.6,581.2c0,53.3,0,106.5,0,159.8c0,32.2-7,38.9-39.9,39c-2.6,0-5.1,0-7.7,0c-33.9,0-40.8-6.7-40.8-40.1
		c0-107.2,0-214.4,0-321.6c0-30.7,7.5-37.9,38.9-38c6.4,0,12.9-0.3,19.3,0.1c21.4,1.1,30,9.7,30.1,31.3
		C703.8,468.3,703.6,524.7,703.6,581.2z"/>
</g>
</svg>
