<?xml version="1.0" encoding="utf-8"?>
<!-- Generator: Adobe Illustrator 21.1.0, SVG Export Plug-In . SVG Version: 6.00 Build 0)  -->
<svg version="1.1" id="Camada_1" xmlns="http://www.w3.org/2000/svg" xmlns:xlink="http://www.w3.org/1999/xlink" x="0px" y="0px"
	 viewBox="0 0 1000 1000" style="enable-background:new 0 0 1000 1000;" xml:space="preserve">
<title>users2</title>
<title>contract</title>
<title>users2</title>
<title>contract</title>
<g>
	<path d="M500.6,89c121,0,241.9-0.1,362.9,0.1c56.3,0.1,98.6,35.5,107.8,89.9c1.1,6.4,1.2,13.1,1.2,19.6
		c0.1,207.1,0.1,414.1,0,621.2c0,64-45,109.2-109,109.5c-64.8,0.2-129.6-0.1-194.4,0.3c-9,0-12-2-11.8-11.5c0.7-27,0.7-54.1,0-81.2
		c-0.3-10,2.1-13.1,12.6-13c61.5,0.5,123,0,184.5,0.5c9.9,0.1,13.1-1.9,13.1-12.6c-0.4-166.5-0.4-332.9,0-499.4
		c0-11.4-3.6-13.2-13.9-13.2c-235.8,0.3-471.5,0.3-707.3-0.1c-11.9,0-13.9,3.9-13.8,14.5c0.3,165.7,0.3,331.3-0.1,497
		c0,11.7,3.6,13.9,14.4,13.8c61.5-0.5,123,0,184.5-0.5c9.4-0.1,11.6,2.6,11.4,11.6c-0.6,27.9-0.5,55.8,0,83.6
		c0.2,8.3-2.6,10.3-10.5,10.3c-66.4-0.3-132.9,0.4-199.3-0.3c-61-0.7-105.4-46.7-105.4-108c-0.1-206.7,0-413.3,0-620
		c0-68,44.2-112.1,112.6-112.1C260.3,88.9,380.5,89,500.6,89z"/>
	<path d="M292.6,611.2c8.7-8.6,17.5-17.1,26.1-25.8c57.4-57.4,114.9-114.7,172.1-172.3c6.8-6.9,10.4-8.2,18.1-0.5
		c63.4,64.1,127.3,127.7,191.1,191.5c2.5,2.5,4.8,5.3,7.3,8c-3.6,3.6-7.5,2-10.9,2.1c-43.5,0.1-86.9,0.5-130.4-0.2
		c-11.8-0.2-14,3.7-14,14.6c0.4,95.5,0.1,191,0.5,286.6c0,10.9-2.4,14.9-14.1,14.5c-26.2-0.9-52.5-0.7-78.7-0.1
		c-9.9,0.3-12.3-3-12.2-12.5c0.3-94.3,0.3-188.6,0.1-282.9c0-22.7,3.2-19.7-19.2-19.8c-41-0.2-82,0-123,0c-4,0-7.9,0-11.9,0
		C293.2,613.3,292.9,612.3,292.6,611.2z"/>
</g>
</svg>
