<?xml version="1.0" encoding="UTF-8" standalone="no"?>
<svg
   xmlns:dc="http://purl.org/dc/elements/1.1/"
   xmlns:cc="http://creativecommons.org/ns#"
   xmlns:rdf="http://www.w3.org/1999/02/22-rdf-syntax-ns#"
   xmlns:svg="http://www.w3.org/2000/svg"
   xmlns="http://www.w3.org/2000/svg"
   viewBox="0 0 512 512"
   height="512"
   width="512"
   id="svg2"
   version="1.1">
  <metadata
     id="metadata8">
    <rdf:RDF>
      <cc:Work
         rdf:about="">
        <dc:format>image/svg+xml</dc:format>
        <dc:type
           rdf:resource="http://purl.org/dc/dcmitype/StillImage" />
        <dc:title></dc:title>
      </cc:Work>
    </rdf:RDF>
  </metadata>
  <defs
     id="defs6" />
  <path
     id="path4524"
     d="m 102.34575,510.38743 c -41.69487,-6.76211 -76.675265,-43.38158 -83.001706,-86.89091 -4.394184,-30.22047 1.476903,-56.27881 17.958786,-79.7086 4.701151,-6.68291 4.701151,-6.68291 4.701151,-105.20128 0,-98.51838 0,-98.51838 6.344553,-109.6693 3.489505,-6.13299 11.855474,-21.06239 18.591044,-33.176422 6.735569,-12.114036 17.403797,-31.290602 23.707168,-42.614592 7.99575,-14.364344 12.715604,-21.80128 15.611484,-24.598588 7.77257,-7.507999 -3.77435,-7.003247 160.209,-7.003247 163.11726,0 152.19908,-0.457015 160.04086,6.699018 3.8884,3.548378 6.30897,7.406933 19.82736,31.606236 3.08939,5.530321 13.19868,23.629552 22.4651,40.220515 9.26641,16.59096 18.04179,32.5997 19.50083,35.57498 2.65278,5.4096 2.65278,5.4096 2.40097,148.91167 -0.28063,159.91033 0.30599,147.29822 -7.24971,155.86889 -10.14977,11.5132 2.21485,10.55105 -142.58516,11.09513 -127.43194,0.47882 -127.43194,0.47882 -131.95159,8.13987 -23.03677,39.04852 -62.5843,57.88028 -106.57014,50.74663 z m 29.54371,-14.90751 C 203.3529,484.40284 233.06232,394.77801 182.60931,342.47261 133.84999,291.92311 50.243203,316.81206 34.946284,386.43051 21.734492,446.55925 73.297845,504.56181 131.88946,495.47992 Z M 95.047491,455.36325 C 92.68853,454.37368 89.404346,450.28513 72.161289,426.87173 57.19248,406.5464 56.151905,404.63907 57.792146,400.53379 c 1.307256,-3.27187 3.397168,-4.57547 7.335289,-4.57547 3.644282,0 4.661724,1.10911 19.43378,21.18472 6.314123,8.58104 11.97783,16.26679 12.586033,17.07944 0.938709,1.25424 6.735992,-4.34753 38.360792,-37.06712 35.36727,-36.59162 37.42497,-38.54466 40.61026,-38.54466 6.01443,0 9.7897,6.56045 6.62807,11.5179 -2.18745,3.42997 -75.86939,80.08863 -80.14659,83.3845 -3.82607,2.94825 -4.525905,3.11969 -7.552289,1.85015 z M 468.29941,433.04683 c 8.51109,-4.93605 7.8516,7.3263 7.8516,-145.98913 0,-135.30846 0,-135.30846 -63.96741,-135.06251 -63.96741,0.24597 -63.96741,0.24597 -64.02472,39.98767 -0.0631,43.76645 -0.006,43.31418 -5.72679,44.96143 -4.67435,1.34582 -148.0961,1.36977 -152.76432,0.0255 -6.08147,-1.75122 -5.84632,-0.0416 -6.14191,-44.65415 -0.26869,-40.55326 -0.26869,-40.55326 -63.9674,-40.55326 -63.698723,0 -63.698723,0 -63.698723,84.75036 0,55.73074 0.31556,84.75037 0.921578,84.75037 0.506869,0 2.896987,-1.45887 5.311373,-3.24194 43.589452,-32.19152 107.348282,-20.92269 140.385672,24.81196 16.5682,22.93588 24.34647,58.40099 18.37244,83.76942 -0.80621,3.42353 -1.47198,6.76327 -1.47949,7.42164 -0.0109,0.95177 25.11156,1.19381 122.60979,1.18129 122.62344,-0.0157 122.62344,-0.0157 126.31831,-2.15862 z m -187.24335,-26.1228 c -5.1031,-2.8717 -4.04083,-11.6246 1.68466,-13.88134 1.41086,-0.55611 33.9886,-0.9149 83.07165,-0.9149 80.75055,0 80.75055,0 83.69022,2.72304 3.87692,3.59121 4.04571,8.08536 0.42492,11.31417 -2.51476,2.24252 -2.51476,2.24252 -84.44313,2.20418 -70.25861,-0.0328 -82.28447,-0.23872 -84.42832,-1.44515 z m 28.11365,-33.63216 c -3.65372,-1.52405 -3.90636,-4.49354 -3.90636,-45.91436 0,-39.947 0,-39.947 -11.00699,-28.7765 -10.34897,10.50271 -11.2285,11.17049 -14.71243,11.17049 -2.90283,0 -4.12012,-0.54653 -5.61992,-2.52322 -4.0883,-5.38825 -3.39099,-6.58884 15.40118,-26.51707 20.02286,-21.23331 20.54612,-21.71416 23.62897,-21.71416 3.91092,0 4.44752,0.47819 23.12793,20.61024 20.02267,21.57863 20.95449,23.23699 15.8501,28.20838 -4.56173,4.44286 -7.01369,3.27298 -18.89994,-9.01758 -5.88933,-6.08965 -11.01339,-11.0721 -11.3868,-11.0721 -0.3734,0 -0.67891,18.33428 -0.67891,40.74285 0,40.74286 0,40.74286 -2.26731,43.09341 -2.1746,2.25444 -6.40421,3.01324 -9.52952,1.70962 z m 102.38814,-1.8823 c -1.8673,-2.46104 -1.91447,-3.50713 -1.91447,-42.45498 0,-21.96247 -0.28385,-40.22603 -0.63077,-40.58569 -0.34692,-0.35966 -5.47744,4.30879 -11.40114,10.37434 -12.79983,13.10632 -17.86118,14.65148 -21.13693,6.45279 -1.75976,-4.40443 -0.46134,-6.23906 18.9781,-26.81549 23.78062,-25.17151 19.41157,-25.12573 42.97539,-0.45028 9.93363,10.40227 18.56386,19.9081 19.17825,21.12406 2.56992,5.08613 -1.21752,10.71718 -7.20836,10.71718 -2.80874,0 -4.41754,-1.27454 -14.02076,-11.10771 -8.75693,-8.96662 -10.9431,-10.76638 -11.34155,-9.33691 -0.27147,0.97395 -0.44466,19.32775 -0.38485,40.78623 0.10874,39.01541 0.10874,39.01541 -2.06804,41.41755 -3.08273,3.40189 -8.39611,3.34353 -11.02487,-0.12109 z M 332.513,186.71589 c 0,-34.47473 0,-34.47473 -66.2767,-34.72048 -66.2767,-0.24574 -66.2767,-0.24574 -66.2767,34.07571 0,18.87681 0.27987,34.6116 0.62192,34.96622 0.34205,0.35461 30.16657,0.53417 66.2767,0.39901 65.65478,-0.24574 65.65478,-0.24574 65.65478,-34.72046 z M 187.01894,133.32794 c 0.48151,-1.18506 3.56504,-12.06615 6.85229,-24.18019 3.28725,-12.11403 8.91162,-32.739971 12.49861,-45.835406 3.587,-13.095445 6.5218,-24.407464 6.5218,-25.137821 0,-1.956814 -89.0983,-1.971322 -93.61405,-0.01523 -3.45685,1.49739 -4.31521,2.813635 -19.12795,29.331508 C 94.412556,77.7614 85.086486,94.352362 79.42505,104.35961 65.422819,129.11019 63.249473,133.1467 63.249473,134.40217 c 0,0.79137 16.440868,1.08046 61.446997,1.08046 61.44699,0 61.44699,0 62.32247,-2.15467 z m 142.65163,1.31661 c 0.27478,-0.46092 -0.0903,-2.72333 -0.81139,-5.02756 -0.72104,-2.30422 -6.58151,-23.58154 -13.02326,-47.28291 -6.44176,-23.701374 -12.13025,-43.632074 -12.64111,-44.290446 -1.66958,-2.151702 -72.44265,-1.690775 -73.5188,0.478816 -0.45718,0.92172 -1.90544,5.554261 -3.21836,10.294536 -1.3129,4.740275 -4.86811,17.45283 -7.90045,28.250122 -13.74562,48.944142 -15.81249,56.706542 -15.31934,57.533782 0.67944,1.13972 125.75355,1.18291 126.43271,0.0437 z m 139.0907,-0.22631 c 0,-0.58541 -6.49125,-12.7593 -14.425,-27.05309 -7.93375,-14.293792 -19.19554,-34.607383 -25.0262,-45.141326 -5.83065,-10.533944 -11.28999,-19.966239 -12.13186,-20.960653 -3.64112,-4.300875 -5.01139,-4.416576 -52.30544,-4.416576 -44.82995,0 -44.82995,0 -44.82995,2.04032 0,1.770564 6.02071,23.943702 14.78758,54.459925 1.43747,5.003623 4.57195,16.20791 6.96552,24.89841 2.39358,8.69051 4.5301,16.12412 4.74784,16.51914 0.67641,1.22715 122.21751,0.88291 122.21751,-0.34615 z"
     style="fill:#000000;stroke-width:0.9405213" />
</svg>
