<?xml version="1.0" encoding="utf-8"?>
<!-- Generator: Adobe Illustrator 21.1.0, SVG Export Plug-In . SVG Version: 6.00 Build 0)  -->
<svg version="1.1" id="Camada_1" xmlns="http://www.w3.org/2000/svg" xmlns:xlink="http://www.w3.org/1999/xlink" x="0px" y="0px"
	 viewBox="0 0 1000 1000" style="enable-background:new 0 0 1000 1000;" xml:space="preserve">
<title>users2</title>
<title>contract</title>
<title>users2</title>
<title>contract</title>
<g>
	<path d="M408.5,252c0-46.2-0.4-92.3,0.2-138.6C409,91.5,414,70.6,428,52.5C448.8,26,476.9,14.3,509,17.9
		c40,4.3,68.8,25.3,79.3,66.8c3.2,12.9,4.7,25.7,4.6,38.9c-0.2,89.6,0.1,179.3-0.3,268.9c-0.1,11.9,2.4,15.9,15.2,15.8
		c93.3-0.6,186.6-0.8,279.7-0.1c34.9,0.2,64.5,13.1,83.1,44.8c30.4,51.7,3.6,121.5-53.7,134.7c-13.7,3.1-27.4,4.9-41.5,4.8
		c-89.6-0.2-179.3,0.1-268.9-0.4c-11.5-0.1-14.1,3.1-14.1,14.3c0.4,93.7,0.8,187.4,0,281.1c-0.3,34.4-12.9,63.7-43.9,82.2
		c-51.6,31.1-122.6,4.6-135.7-53.5c-3-13.3-4.8-26.5-4.7-40.3c0.2-89.6-0.1-179.3,0.3-268.9c0.1-11.5-2-15.2-14.6-15.1
		c-92.9,0.6-185.6,0.3-278.5,0.3c-54.7,0-91.4-32.3-98.3-86.7c-4.5-35,23.3-79.4,57.1-90.2c14.6-4.6,29.5-7.7,45.2-7.7
		c91.9,0.3,183.8,0,275.8,0.4c10.8,0,13.5-3,13.3-13.5C408.2,347.1,408.5,299.5,408.5,252z"/>
</g>
</svg>
