<?xml version="1.0" encoding="utf-8"?>
<!-- Generator: Adobe Illustrator 21.1.0, SVG Export Plug-In . SVG Version: 6.00 Build 0)  -->
<svg version="1.1" id="Camada_1" xmlns="http://www.w3.org/2000/svg" xmlns:xlink="http://www.w3.org/1999/xlink" x="0px" y="0px"
	 viewBox="0 0 1000 1000" style="enable-background:new 0 0 1000 1000;" xml:space="preserve">
<style type="text/css">
	.st0{fill:#3F3F3F;}
	.st1{fill:#404040;}
</style>
<title>users2</title>
<title>contract</title>
<title>users2</title>
<title>contract</title>
<g>
	<path class="st0" d="M157.5,972.3c-36.6,0-73.3-0.5-109.9,0.2c-13.8,0.3-20-2.6-19.9-18.5c0.8-73.9,0.6-147.9,0.2-221.9
		c-0.1-10.9,3.4-18.8,11-26.4c165.5-165.2,330.9-330.6,496-496.2c9.2-9.2,14.5-9.3,23.7,0c76.5,77.1,153.1,154.1,230.5,230.3
		c12.7,12.5,7.6,19-2.1,28.7C621.9,633.3,457,798.2,292.4,963.4c-6.9,6.9-13.8,9.1-22.9,9.1C232.1,972.2,194.8,972.3,157.5,972.3z
		 M184.4,854.7c0,6.7,0.7,13.4-0.1,19.9c-2.1,15.7,4.4,19,19.8,20.7c35.3,3.8,63.7-4.9,84.5-34.7c2.6-3.8,6.2-7.1,9.8-9.9
		c12.4-9.3,12.3-17,0.6-28.3c-35.1-33.6-69-68.4-103.3-102.7c-32.2-32.1-31.8-31.8-64.7,0.2c-16,15.5-29.4,29.6-27.3,55.7
		c3.1,38.9,0.8,39.1,41.3,39C184.4,814.6,184.4,814.6,184.4,854.7z M581.5,318.6c0.4-17-9.1-23.3-21.9-19c-8,2.6-13.1,9-18.7,14.6
		C436,419.4,331.1,524.6,226.3,629.9c-9.6,9.7-24.8,21-10.7,34.8c13.6,13.2,25.5-1.1,35.2-10.8c46.7-46.6,93-93.6,139.6-140.3
		c58.8-59,117.7-117.8,176.5-176.7C573.5,330.4,581.3,324.6,581.5,318.6z"/>
	<path class="st1" d="M746.1,29.1c18.7,0.2,35.9,5.6,49.2,18.7c52.6,51.9,105.6,103.6,156.8,156.9c27.2,28.3,25.7,71-1.6,99.4
		c-30.9,32.2-63.2,63.1-94.3,95.1c-8.5,8.7-13.1,6.6-20.5-0.9c-77.5-78-155.3-155.7-233.2-233.2c-8.4-8.3-9.5-13.9-0.5-22.7
		c32.1-31.1,63.4-62.9,95.1-94.3C710.6,34.9,727.4,29.5,746.1,29.1z"/>
</g>
</svg>
